<?xml version="1.0" encoding="UTF-8" standalone="no"?>
<!-- Created with Inkscape (http://www.inkscape.org/) -->

<svg
   xmlns:osb="http://www.openswatchbook.org/uri/2009/osb"
   xmlns:dc="http://purl.org/dc/elements/1.1/"
   xmlns:cc="http://creativecommons.org/ns#"
   xmlns:rdf="http://www.w3.org/1999/02/22-rdf-syntax-ns#"
   xmlns:svg="http://www.w3.org/2000/svg"
   xmlns="http://www.w3.org/2000/svg"
   xmlns:sodipodi="http://sodipodi.sourceforge.net/DTD/sodipodi-0.dtd"
   xmlns:inkscape="http://www.inkscape.org/namespaces/inkscape"
   width="40"
   height="40"
   viewBox="0 0 10.583333 10.583334"
   version="1.1"
   id="svg8"
   inkscape:version="0.92.4 (5da689c313, 2019-01-14)"
   sodipodi:docname="krizovatka6.svg">
  <defs
     id="defs2">
    <linearGradient
       id="linearGradient4539"
       osb:paint="solid">
      <stop
         style="stop-color:#000000;stop-opacity:1;"
         offset="0"
         id="stop4537" />
    </linearGradient>
    <inkscape:perspective
       sodipodi:type="inkscape:persp3d"
       inkscape:vp_x="0 : 105.83335 : 1"
       inkscape:vp_y="0 : 1000 : 0"
       inkscape:vp_z="211.66666 : 105.83335 : 1"
       inkscape:persp3d-origin="105.83333 : 70.55556 : 1"
       id="perspective9" />
    <inkscape:perspective
       id="perspective832"
       inkscape:persp3d-origin="6.614583 : 13.229168 : 1"
       inkscape:vp_z="13.229166 : 19.84375 : 1"
       inkscape:vp_y="0 : 999.99999 : 0"
       inkscape:vp_x="0 : 19.84375 : 1"
       sodipodi:type="inkscape:persp3d" />
    <inkscape:perspective
       id="perspective832-5"
       inkscape:persp3d-origin="6.614583 : 13.229168 : 1"
       inkscape:vp_z="13.229166 : 19.84375 : 1"
       inkscape:vp_y="0 : 999.99999 : 0"
       inkscape:vp_x="0 : 19.84375 : 1"
       sodipodi:type="inkscape:persp3d" />
    <inkscape:perspective
       id="perspective832-18"
       inkscape:persp3d-origin="6.614583 : 13.229168 : 1"
       inkscape:vp_z="13.229166 : 19.84375 : 1"
       inkscape:vp_y="0 : 999.99999 : 0"
       inkscape:vp_x="0 : 19.84375 : 1"
       sodipodi:type="inkscape:persp3d" />
    <inkscape:perspective
       sodipodi:type="inkscape:persp3d"
       inkscape:vp_x="0 : 19.84375 : 1"
       inkscape:vp_y="0 : 999.99999 : 0"
       inkscape:vp_z="13.229166 : 19.84375 : 1"
       inkscape:persp3d-origin="6.614583 : 13.229168 : 1"
       id="perspective832-1" />
    <inkscape:perspective
       id="perspective832-3"
       inkscape:persp3d-origin="6.614583 : 13.229168 : 1"
       inkscape:vp_z="13.229166 : 19.84375 : 1"
       inkscape:vp_y="0 : 999.99999 : 0"
       inkscape:vp_x="0 : 19.84375 : 1"
       sodipodi:type="inkscape:persp3d" />
    <inkscape:perspective
       id="perspective832-37"
       inkscape:persp3d-origin="6.614583 : 13.229168 : 1"
       inkscape:vp_z="13.229166 : 19.84375 : 1"
       inkscape:vp_y="0 : 999.99999 : 0"
       inkscape:vp_x="0 : 19.84375 : 1"
       sodipodi:type="inkscape:persp3d" />
    <inkscape:perspective
       sodipodi:type="inkscape:persp3d"
       inkscape:vp_x="0 : 19.84375 : 1"
       inkscape:vp_y="0 : 999.99999 : 0"
       inkscape:vp_z="13.229166 : 19.84375 : 1"
       inkscape:persp3d-origin="6.614583 : 13.229168 : 1"
       id="perspective832-1-5" />
  </defs>
  <sodipodi:namedview
     id="base"
     pagecolor="#ffffff"
     bordercolor="#666666"
     borderopacity="1.0"
     inkscape:pageopacity="0.0"
     inkscape:pageshadow="2"
     inkscape:zoom="11.2"
     inkscape:cx="20.405187"
     inkscape:cy="13.493389"
     inkscape:document-units="mm"
     inkscape:current-layer="layer1"
     showgrid="false"
     units="px"
     inkscape:window-width="1920"
     inkscape:window-height="1017"
     inkscape:window-x="1912"
     inkscape:window-y="-8"
     inkscape:window-maximized="1"
     showguides="true"
     inkscape:guide-bbox="true" />
  <metadata
     id="metadata5">
    <rdf:RDF>
      <cc:Work
         rdf:about="">
        <dc:format>image/svg+xml</dc:format>
        <dc:type
           rdf:resource="http://purl.org/dc/dcmitype/StillImage" />
        <dc:title></dc:title>
      </cc:Work>
    </rdf:RDF>
  </metadata>
  <g
     inkscape:label="Vrstva 1"
     inkscape:groupmode="layer"
     id="layer1"
     transform="translate(0,-286.41665)">
    <g
       id="g3766"
       transform="matrix(0,0.03960555,-0.03914572,0,10.583318,286.41652)">
      <path
         d="m 164.77,1.2446 c -3.0433,3.8349 -7.031,6.0315 -11.761,22.51 l 3.1429,14.725 c 1.0544,6.5582 -3.9306,17.976 -7.262,28.064 7.2902,12.32 5.1058,10.862 16.203,8.0028 4.971,-18.119 7.9619,-27.026 10.752,-34.997 l 4.8575,-8.2857 c 0.34,-9.98 0.78,-23.259 -2.86,-28.924 -7.33,-3.6523 -10.06,-2.2168 -13.07,-1.0955 z"
         id="path2989"
         inkscape:connector-curvature="0"
         style="fill:#803300" />
      <path
         d="m 89.54,75.867 c -9.0006,7.3847 -14.044,15.899 -16.22,25.233 2.3658,13.23 4.2538,25.949 2.1342,34.376 l 20.915,0.7314 5.122,-27.062 -0.85367,-26.696 c 0.75547,-6.7742 -6.7259,-5.0799 -11.098,-6.5826 z"
         id="path2987"
         inkscape:connector-curvature="0"
         style="fill:#803300" />
      <path
         d="m 107.7,109.15 8.0454,8.0454 c 17.008,-8.2384 19.31,-7.2352 37.301,-5.8512 l 3.657,-23.039 -9.1425,-13.531 3.657,-20.113 28.159,-16.091 c 17.271,6.1317 12.903,6.3647 23.039,20.845 -2.6238,44.813 10.595,76.173 -5.8512,108.61 -49.018,17.074 -82.632,15.017 -129.82,1.0971 3.3316,-10.898 4.6759,-28.591 9.1425,-46.078 16.727,-12.446 12.93,-14.917 31.816,-13.897 z"
         id="path2991"
         inkscape:connector-curvature="0"
         style="fill:#0055d4" />
      <path
         d="m 10.842,158.18 c 2.6071,-7.3507 4.7903,-16.124 13.793,-20.277 l 6.7495,7.7236 -2.2825,19.401 z"
         id="path3763"
         inkscape:connector-curvature="0"
         style="fill:#edb9ab" />
      <path
         d="m 243.65,63.46 0.57061,-16.548 5.7061,-14.265 c 4.7109,1.4814 7.4356,-2.9958 10.035,-7.8501 l 3.66,20.974 -1.7118,22.254 z"
         id="path3761"
         inkscape:connector-curvature="0"
         style="fill:#edb9ab" />
      <path
         d="m 242.51,62.89 c 8.6242,-6.5369 14.322,-1.3691 19.971,3.9943 l -0.57061,25.678 c 7.5134,27.516 7.3211,24.674 -2.2825,49.643 4.7352,18.644 0.86727,27.474 -3.4237,54.779 -9.5992,1.5797 -8.3956,0.56637 -9.7004,9.7004 l -15.977,27.96 -17.118,5.1355 -3.4237,6.8474 -24.536,6.8474 -61.626,6.2768 -62.197,-5.7061 -9.1298,-5.1355 -9.697,-12.55 -25.107,-15.41 -11.983,-7.42 -1.7118,-18.26 -3.9943,-11.41 5.7061,-21.68 c 6.7199,-4.4684 13.933,-5.7061 19.971,-3.9943 4.1881,3.4824 5.0185,6.95 6.2767,11.983 l 17.689,0.57062 15.407,-2.8531 6.2768,-11.412 -1.7118,-18.83 34.237,-17.689 c 25.017,-13.5 36.92,-8.2985 62.197,0.57062 l 36.519,17.118 11.412,13.695 13.124,-18.26 c -0.0537,-19.672 1.6461,-23.2 10.271,-39.943 z"
         id="path3765"
         inkscape:connector-curvature="0"
         style="fill:#467037" />
      <path
         d="m 117.55,206.58 c 1.2941,-9.1788 8.16,-18.844 13.983,-26.614 15.537,-20.727 29.841,-16.823 41.395,-3.5155 10.461,5.7929 17.322,24.705 19.944,43.969 2.7932,10.642 7.3255,9.1794 -1.1412,14.372 -4.0288,21.967 -7.9112,24.606 -22.539,32.47 -10.35,2.1474 -22.904,1.2076 -33.096,-1.0646 -23.32,-13.104 -15.905,-11.507 -19.686,-36.196 -12.923,4.4035 -7.14,-24.113 1.1412,-23.421 z"
         id="path3767"
         inkscape:connector-curvature="0"
         style="fill:#edb9ab" />
      <path
         d="m 117.26,207.32 c 18.024,1.2508 9.3043,8.1692 20.257,-6.0562 12.264,-0.0241 23.873,0.42843 33.096,1.2113 9.7853,14.809 4.5476,7.7382 21.398,1.8169 0,0 0.86478,21.89 -1e-5,20.894 -0.52598,-0.60562 -0.81661,23.922 -1.7118,23.922 -6.0105,14.301 -15.325,17.694 -25.678,20.894 -8.1788,0.99375 -24.061,-0.18965 -32.24,-2.4225 -16.966,-12.05 -12.827,-10.166 -17.404,-26.95 0.70551,-11.58 1.4806,-22.397 2.2824,-33.309 z"
         id="path3769"
         inkscape:connector-curvature="0"
         style="fill:#58411a" />
    </g>
  </g>
</svg>
