<?xml version="1.0" encoding="UTF-8" standalone="no"?>
<!-- Created with Inkscape (http://www.inkscape.org/) -->

<svg
   xmlns:dc="http://purl.org/dc/elements/1.1/"
   xmlns:cc="http://creativecommons.org/ns#"
   xmlns:rdf="http://www.w3.org/1999/02/22-rdf-syntax-ns#"
   xmlns:svg="http://www.w3.org/2000/svg"
   xmlns="http://www.w3.org/2000/svg"
   xmlns:sodipodi="http://sodipodi.sourceforge.net/DTD/sodipodi-0.dtd"
   xmlns:inkscape="http://www.inkscape.org/namespaces/inkscape"
   width="182"
   height="125"
   viewBox="0 0 48.154169 33.072918"
   version="1.1"
   id="svg8"
   inkscape:version="0.92.4 (5da689c313, 2019-01-14)"
   sodipodi:docname="auto1_cervena.svg">
  <defs
     id="defs2" />
  <sodipodi:namedview
     id="base"
     pagecolor="#ffffff"
     bordercolor="#666666"
     borderopacity="1.0"
     inkscape:pageopacity="0.0"
     inkscape:pageshadow="2"
     inkscape:zoom="3.959798"
     inkscape:cx="127.84079"
     inkscape:cy="86.565541"
     inkscape:document-units="mm"
     inkscape:current-layer="g114"
     showgrid="false"
     units="px"
     inkscape:window-width="1920"
     inkscape:window-height="1017"
     inkscape:window-x="1912"
     inkscape:window-y="-8"
     inkscape:window-maximized="1" />
  <metadata
     id="metadata5">
    <rdf:RDF>
      <cc:Work
         rdf:about="">
        <dc:format>image/svg+xml</dc:format>
        <dc:type
           rdf:resource="http://purl.org/dc/dcmitype/StillImage" />
        <dc:title></dc:title>
      </cc:Work>
    </rdf:RDF>
  </metadata>
  <g
     inkscape:label="Vrstva 1"
     inkscape:groupmode="layer"
     id="layer1"
     transform="translate(0,-263.92707)">
    <g
       id="g114"
       transform="matrix(0.03546114,0,0,0.03546114,-20.860421,263.35034)">
      <path
         style="opacity:1;fill:#d40000;stroke-width:1.0391897"
         inkscape:connector-curvature="0"
         d="m 1011.6926,344.96767 c 3.4661,-89.47009 3.103,-87.46794 3.07,-87.00943 0.165,-1.83403 7.1301,-75.97469 -6.1234,-146.7988 C 995.22067,39.433582 908.0084,19.671911 908.0084,19.671911 l -4.48935,-0.168119 -91.86667,-3.224836 v 0.42794 l -90.97541,3.194269 -4.47285,0.183403 c 0,0 -87.22877,19.761672 -100.64732,91.487522 -13.25349,70.82412 -6.2884,144.9495 -6.10684,146.78353 -0.0331,-0.42794 -0.39612,-2.46066 3.06993,86.99414 3.6641,94.34556 -6.43694,327.00753 -5.05053,355.28215 1.38642,28.24406 -2.27768,88.10985 3.81265,103.91308 6.10683,15.81851 26.83709,92.63379 26.83709,92.63379 0,0 33.57111,59.43785 174.44104,50.57337 v -0.35152 c 140.0777,8.55881 173.51678,-50.61922 173.51678,-50.61922 0,0 20.74678,-76.81529 26.85358,-92.64908 6.0903,-15.78794 2.4262,-75.66901 3.7961,-103.91307 1.3865,-28.24406 -8.6981,-260.92132 -5.034,-355.25159 z"
         id="path10" />
      <path
         id="path12"
         d="m 927.17068,263.68959 c -32.8449,-15.81851 -115.53481,-16.9495 -115.53481,-16.9495 v -0.12227 c 0,0 -82.68991,1.13099 -115.5348,16.9495 -32.8449,15.80322 -44.92653,23.33803 -42.66536,33.8837 2.27769,10.53039 26.80407,115.58973 26.80407,118.20322 0,2.65934 2.3107,7.168 15.11856,3.79033 12.79135,-3.40824 116.27753,-7.53481 116.27753,-7.53481 v 0.13756 c 0,0 103.48617,4.14185 116.29403,7.51952 12.79136,3.40824 15.08554,-1.13099 15.08554,-3.75976 0,-2.62878 24.5429,-107.68812 26.82059,-118.21851 2.26119,-10.56095 -9.82047,-18.09576 -42.66535,-33.89898 z"
         inkscape:connector-curvature="0"
         style="fill:#121215;stroke-width:1.0391897" />
      <path
         id="path14"
         d="m 985.6643,314.90487 c 0,0 -0.39612,120.86257 0,156.62615 0.39612,35.76358 -0.39612,83.95271 -3.23498,116.72071 -2.87186,32.768 -9.35832,179.99475 -9.35832,179.99475 v 2.99558 c 0,0 -20.31762,-51.21528 -24.39435,-90.73862 -8.94569,-38.78973 -4.88547,-134.43439 0,-192.80239 2.03011,-57.97063 32.92742,-162.64788 36.98765,-172.79618 z"
         inkscape:connector-curvature="0"
         style="fill:#101114;stroke-width:1.0391897" />
      <path
         id="path16"
         d="m 934.5484,730.86284 c -2.34371,-13.54125 -4.37382,-9.59809 -4.9515,-10.72907 -0.59418,-1.11571 -15.34962,2.53707 -21.32441,3.95844 -48.16152,7.9169 -96.62011,5.93003 -96.62011,5.93003 v -0.13755 c 0,0 -48.4586,1.98687 -96.62011,-5.93003 -5.9748,-1.40609 -20.73024,-5.10472 -21.32443,-3.97373 -0.57767,1.13098 -2.60778,-2.81218 -4.95149,10.74436 -2.34371,13.55653 -14.60691,95.46125 -13.71562,96.30185 0.87475,0.84059 30.05555,16.93421 81.73262,24.56071 11.38843,0.48908 54.87903,2.38424 54.87903,2.26197 v 0.12227 c 0,0.15284 43.49059,-1.75761 54.87904,-2.26197 51.67706,-7.61122 80.85785,-23.70483 81.73261,-24.56071 0.87475,-0.8406 -11.38844,-82.71475 -13.71563,-96.28657 z"
         inkscape:connector-curvature="0"
         style="fill:#131417;stroke-width:1.0391897" />
      <path
         id="path18"
         d="m 982.14873,345.53317 12.93991,6.92346 v 11.58496 h -12.93991 z"
         inkscape:connector-curvature="0"
         style="fill:#0d0e13;stroke-width:1.0391897" />
      <path
         id="path20"
         d="m 898.61707,27.115016 a 13.104948,12.135164 0 0 0 -3.6641,-1.635344 c -5.74373,-1.558925 -3.33401,-1.069851 3.6641,1.635344 z"
         inkscape:connector-curvature="0"
         style="fill:#c2c6c1;stroke-width:1.0391897" />
      <path
         id="path22"
         d="m 989.47695,112.67251 c -246.70795,553.10554 -123.35397,276.55277 0,0 z"
         inkscape:connector-curvature="0"
         style="fill:#d8684a;stroke-width:1.0391897"
         sodipodi:nodetypes="cc" />
      <path
         id="path24"
         d="m 728.92946,25.892329 a 13.005919,12.043463 0 0 0 -3.6476,1.635343 c 6.9981,-2.705194 9.39133,-3.209552 3.6476,-1.635343 z"
         inkscape:connector-curvature="0"
         style="fill:#c2c6c1;stroke-width:1.0391897" />
      <path
         id="path26"
         d="m 623.19861,358.57006 c -2.52239,389.17384 -1.26119,194.58692 0,0 z"
         inkscape:connector-curvature="0"
         style="fill:#d8684a;stroke-width:1.0391897"
         sodipodi:nodetypes="cc" />
      <path
         id="path28"
         d="m 944.74846,545.62582 39.64496,-27.70913 v 32.78328 L 944.74846,573.8546 Z M 678.04462,805.50785 c -1.71651,12.36442 -2.82234,21.24418 -2.52526,21.51929 0.87477,0.84059 30.07207,16.93421 81.73263,24.56071 11.38842,0.48908 54.87903,2.38424 54.87903,2.26197 v 0.12227 c 0,0.15284 43.49061,-1.75761 54.89553,-2.26197 51.66057,-7.61122 80.84136,-23.70483 81.73263,-24.56071 0.44564,-0.42794 -2.70681,-23.20048 -6.13986,-46.72191 z"
         inkscape:connector-curvature="0"
         style="fill:#202226;stroke-width:1.0391897" />
      <path
         id="path30"
         d="m 673.22517,384.93424 253.26879,-55.52525 38.37407,-11.34042 c 2.39322,-10.3317 4.12624,-18.01934 4.67091,-20.49528 2.26118,-10.54568 -9.82047,-18.09576 -42.66536,-33.89899 -32.8449,-15.81851 -115.5348,-16.94949 -115.5348,-16.94949 v -0.12227 c 0,0 -82.67341,1.13099 -115.53481,16.94949 -32.84489,15.80323 -44.92653,23.33803 -42.66535,33.88371 1.50196,6.93874 12.6263,54.83749 20.08655,87.4985 z"
         inkscape:connector-curvature="0"
         style="fill:#212428;stroke-width:1.0391897" />
      <path
         id="path32"
         d="m 638.53172,315.31753 c 0,0 0.37963,120.86256 0,156.62614 -0.41262,35.77887 0.39612,83.95272 3.23498,116.736 2.85536,32.75272 9.35832,179.96418 9.35832,179.96418 v 3.01087 c 0,0 20.31762,-51.21528 24.39434,-90.75391 8.9457,-38.78973 4.88548,-134.4191 0,-192.77182 -2.03011,-58.0012 -32.92742,-162.64788 -36.98764,-172.81146 z"
         inkscape:connector-curvature="0"
         style="fill:#101114;stroke-width:1.0391897" />
      <path
         id="path34"
         d="m 1011.6926,345.24278 c 3.4661,-89.47009 3.103,-87.46794 3.07,-87.00943 0.165,-1.83403 7.1301,-75.97469 -6.1234,-146.79881 C 995.22067,39.708687 908.0084,19.947016 908.0084,19.947016 l -4.48935,-0.16812 -91.86667,-3.209552 v 0.412657 l -90.97541,3.178985 -4.47285,0.183403 c 0,0 -87.22877,19.761672 -100.64732,91.487521 -13.25349,70.82412 -6.2884,144.9495 -6.10684,146.78353 -0.0331,-0.42794 -0.39612,-2.44538 3.06993,87.02471 3.6641,94.31499 -6.43694,327.00752 -5.05053,355.25158 1.38642,28.24406 -2.27768,88.12514 3.81265,103.91308 6.10683,15.81851 26.83709,92.63379 26.83709,92.63379 0,0 33.57111,59.45313 174.44104,50.57337 v -0.35152 c 140.0777,8.55881 173.51678,-50.61922 173.51678,-50.61922 0,0 20.74678,-76.81529 26.85358,-92.63379 6.0903,-15.81851 2.4262,-75.6843 3.7961,-103.91308 1.3865,-28.24406 -8.6981,-260.9366 -5.034,-355.25158 z m -6.0903,460.64716 c -17.08265,92.98532 -41.88962,108.05493 -69.94807,121.99356 -28.04195,13.92334 -124.01836,15.78794 -124.01836,15.78794 v 0.38209 c -9.80396,-0.21397 -96.63661,-2.65935 -123.11059,-15.77266 -28.04194,-13.93863 -52.84893,-28.99296 -69.93156,-121.97827 -17.06615,-93.01588 6.71751,-130.68991 3.6641,-210.31737 -3.05342,-79.62747 -2.72332,-284.70257 -1.83206,-307.84191 0.90778,-23.10878 -6.07382,-183.55582 18.02344,-206.679887 24.08075,-23.16991 58.36158,-54.898627 78.6627,-56.044895 11.603,-0.64191 26.11085,-0.917015 36.44297,-1.008717 v -0.550208 h 59.02179 v -0.38209 h 58.0975 v 0.534925 a 795.86976,736.97433 0 0 1 36.44297,1.008717 c 20.28461,1.130985 54.59845,32.890269 78.67921,56.044895 24.09726,23.15463 17.09916,183.55582 18.00696,206.69517 0.9077,23.13934 1.2213,228.19916 -1.8321,307.81134 -3.08643,79.65803 20.6972,117.30149 3.6311,210.31737 z"
         inkscape:connector-curvature="0"
         style="fill:#9e4a36;stroke-width:1.0391897" />
      <path
         id="path36"
         d="m 643.93018,869.50049 c 0,0 23.8531,16.60204 44.30118,31.33406 22.71754,13.69828 43.29853,22.98291 43.3322,22.9333 0,0 -35.78833,0.23531 -53.4034,-7.34704 -17.4963,-7.53123 -35.23678,-26.79184 -34.22998,-46.92032 z"
         inkscape:connector-curvature="0"
         style="fill:#ffffff;stroke-width:1.0391897"
         sodipodi:nodetypes="cccsc" />
      <path
         id="path38"
         d="m 717.09538,25.433821 c 0,0 -35.17208,15.803224 -45.73527,26.547583 -10.57969,10.713791 -26.2099,29.191642 -26.62252,31.254925 -0.39612,2.063284 -16.71508,23.688561 -16.71508,23.688561 36.71292,24.67879 137.05328,-38.077823 89.07287,-81.491069 z"
         inkscape:connector-curvature="0"
         style="fill:#ffffff;stroke-width:1.0391897"
         sodipodi:nodetypes="ccccc" />
      <path
         id="path40"
         d="m 811.94946,16.55406 h 0.14855 v -0.290388 z m 80.80835,11.294567 c -0.31359,-3.240119 -18.15547,-8.054448 -22.5623,-8.910328 -4.3078,-0.81003 -55.0936,-2.292537 -58.11401,-2.384239 l -0.0165,0.38209 c -3.33401,0.106985 -53.80621,1.589493 -58.081,2.414806 -4.42333,0.840597 -22.26521,5.639642 -22.56231,8.895045 -0.29708,3.255403 3.05343,4.799045 7.31171,3.102567 4.25828,-1.696478 10.21659,-6.510806 14.78845,-7.488955 4.58839,-0.962866 58.72469,-2.68991 58.72469,-2.689911 l -0.0165,-0.382089 c 4.22527,0.137552 54.02077,1.727045 58.41109,2.68991 4.57188,0.962866 10.53017,5.76191 14.78846,7.473672 4.29129,1.681194 7.64179,0.122269 7.3282,-3.102568 z"
         inkscape:connector-curvature="0"
         style="fill:#1d2021;stroke-width:1.0391897" />
      <path
         id="path42"
         d="m 627.24232,352.854 c 0,0 -35.37016,13.00633 -37.4993,25.98209 -2.12914,12.97576 -1.81554,14.39714 0,14.39714 1.81555,0 39.34785,-18.35559 39.34785,-18.35559 V 352.854 Z"
         inkscape:connector-curvature="0"
         style="fill:#d14c32;stroke-width:1.0391897" />
      <path
         id="path44"
         d="m 590.04011,396.19824 -0.29709,-2.96501 39.34785,-18.35558 V 377.43 Z"
         inkscape:connector-curvature="0"
         style="fill:#0d0e13;stroke-width:1.0391897" />
      <path
         id="path46"
         d="m 642.04728,345.94582 -12.95641,6.90818 v 11.56968 h 12.95641 z"
         inkscape:connector-curvature="0"
         style="fill:#0d0e13;stroke-width:1.0391897" />
      <path
         id="path48"
         d="M 679.43105,546.0232 639.7861,518.34463 v 32.768 l 39.64495,23.13934 z"
         inkscape:connector-curvature="0"
         style="fill:#202226;stroke-width:1.0391897" />
      <path
         id="path50"
         d="m 688.42625,730.86284 c 2.34371,-13.54125 4.39032,-9.59809 4.968,-10.72907 0.57768,-1.11571 15.31661,2.53707 21.30792,3.95844 48.16151,7.9169 96.6201,5.93003 96.6201,5.93003 v -0.13755 c 0,0 48.47512,1.98687 96.62011,-5.93003 5.9913,-1.40609 20.73024,-5.10472 21.30792,-3.97373 0.59418,1.13098 2.6408,-2.81218 4.968,10.74436 2.34371,13.55653 14.6069,95.46125 13.71563,96.30185 -0.87477,0.84059 -30.05555,16.93421 -81.73262,24.56071 -11.40493,0.48908 -54.87904,2.38424 -54.87904,2.26197 v 0.12227 c 0,0.15284 -43.49059,-1.75761 -54.87903,-2.26197 -51.67706,-7.61122 -80.85786,-23.70483 -81.74913,-24.56071 -0.85825,-0.8406 11.40495,-82.71475 13.73214,-96.28657 z m 9.12725,-467.17325 c 32.8449,-15.81851 115.53481,-16.91893 115.53481,-16.91893 v -0.15284 c 0,0 82.6899,1.13099 115.5183,16.9495 32.84489,15.80322 44.94303,23.33803 42.66535,33.8837 -2.26118,10.53039 -26.80408,115.58973 -26.80408,118.20322 0,2.65934 -2.31069,7.168 -15.10205,3.79033 -12.79135,-3.40824 -116.27752,-7.53481 -116.27752,-7.53481 v 0.13756 c 0,0 -103.50269,4.14185 -116.29404,7.51952 -12.80786,3.40824 -15.10205,-1.13099 -15.10205,-3.75976 0,-2.62878 -24.52639,-107.68812 -26.80407,-118.21851 -2.27768,-10.56095 9.82046,-18.09576 42.66535,-33.89898 z"
         inkscape:connector-curvature="0"
         style="fill:#343c3e;stroke-width:1.0391897" />
      <path
         id="path52"
         d="m 683.17767,270.90344 c -22.39725,11.43211 -30.73225,18.17217 -28.81768,27.06722 2.26119,10.5151 26.80408,115.58973 26.80408,118.23379 0,2.62878 2.31069,7.13743 15.10204,3.75976 2.90487,-0.77946 10.44765,-1.58949 20.38365,-2.38424 C 701.2011,382.51944 688.2942,304.77186 683.17767,270.90344 Z m 258.73194,-0.16812 c 22.39725,11.40155 30.71576,18.15689 28.81769,27.06722 -2.2777,10.53039 -26.82058,115.58973 -26.82058,118.21851 0,2.62877 -2.2942,7.168 -15.08555,3.75976 -2.90487,-0.76418 -10.46415,-1.58949 -20.40014,-2.35367 15.46515,-35.13696 28.35554,-112.85397 33.48858,-146.69182 z"
         inkscape:connector-curvature="0"
         style="fill:#2e3436;stroke-width:1.0391897" />
      <path
         id="path54"
         d="m 964.22434,284.21544 c -6.46996,-5.67021 -18.38654,-11.95176 -36.88862,-20.86209 -32.84489,-15.81851 -115.5348,-16.9495 -115.5348,-16.9495 v 0.15284 h -0.23106 v 0.0611 c -6.63501,0.12227 -83.6307,1.81875 -115.05617,16.9495 -18.51857,8.89504 -30.43517,15.19188 -36.90511,20.86209 l 29.2138,21.19833 c 0,0 59.35187,-8.69636 123.45718,-9.67451 v -0.19869 c 63.7257,1.05457 122.58243,6.78591 122.58243,6.78591 z"
         inkscape:connector-curvature="0"
         style="fill:#202226;stroke-width:1.0391897" />
      <path
         id="path56"
         d="m 907.08413,25.021165 c 0,0 35.18859,15.78794 45.73527,26.532298 10.57969,10.744358 26.24291,29.176358 26.62251,31.270209 0.41263,2.078567 17.07845,27.019468 17.07845,27.019468 C 960.45203,142.7335 861.98211,70.3682 907.08413,25.021165 Z"
         inkscape:connector-curvature="0"
         style="fill:#ffffff;stroke-width:1.0391897"
         sodipodi:nodetypes="ccccc" />
      <path
         id="path58"
         d="m 752.26749,240.1223 c -88.5683,468.13901 -44.28415,234.06951 0,0 z"
         inkscape:connector-curvature="0"
         style="fill:#d8684a;stroke-width:1.0391897"
         sodipodi:nodetypes="cc" />
      <path
         id="path60"
         d="M 748.00919,232.43466 766.70933,58.843732 752.87817,120.2226 Z M 876.20333,232.022 857.50319,58.431075 871.31784,119.82523 Z"
         inkscape:connector-curvature="0"
         style="fill:#000000;stroke-width:1.0391897"
         sodipodi:nodetypes="cccccccc" />
      <path
         id="path62"
         d="m 693.39425,720.53114 c -0.57768,1.13098 -2.62429,-2.82747 -4.968,10.72907 -2.34371,13.55654 -14.6069,95.44597 -13.73214,96.30185 0.42913,0.41266 7.46025,4.35582 20.40016,9.23129 l 16.80205,-112.96096 c -6.84956,-1.63534 -18.00692,-4.29469 -18.50207,-3.30125 z m 240.84055,10.72907 c -2.32721,-13.55653 -4.37382,-9.59809 -4.968,-10.72907 -0.49515,-0.99343 -11.65251,1.65063 -18.50206,3.30125 l 16.80205,112.96096 c 12.9399,-4.86018 19.98752,-8.80335 20.38364,-9.23129 0.89128,-0.85588 -11.37192,-82.74531 -13.71563,-96.30185 z"
         inkscape:connector-curvature="0"
         style="fill:#2e3436;stroke-width:1.0391897" />
      <path
         id="path64"
         d="m 996.93719,352.45663 c 0,0 35.38671,12.99104 37.51581,25.98209 2.1291,12.99105 1.8155,14.39713 0,14.39713 -1.8321,0 -39.36436,-18.35558 -39.36436,-18.35558 v -22.02364 z"
         inkscape:connector-curvature="0"
         style="fill:#d14c32;stroke-width:1.0391897" />
      <path
         id="path66"
         d="m 1034.1394,395.80087 0.3136,-2.94973 -39.36436,-18.35558 v 2.53707 z"
         inkscape:connector-curvature="0"
         style="fill:#0d0e13;stroke-width:1.0391897" />
      <path
         id="path70"
         d="m 815.7456,834.51609 c -53.72368,0 -102.05023,-11.05003 -135.57184,-28.61086 l -2.14564,-0.39738 c -3.43304,23.50615 -3.06992,21.61099 -2.59128,22.05421 0.87476,0.8406 30.05555,16.9495 81.73262,24.56072 11.38842,0.50436 54.87903,2.39952 54.87903,2.26197 v -0.13755 c 0,0.13755 43.49061,-1.7729 54.87903,-2.26197 51.67708,-7.62651 80.87436,-23.72012 81.74913,-24.576 0.28058,-0.24454 -0.69321,-8.02388 -2.21166,-19.07391 -33.22451,16.15474 -79.50445,26.18077 -130.71939,26.18077 z"
         inkscape:connector-curvature="0"
         style="fill:#202226;stroke-width:1.0391897" />
      <path
         id="path36-27"
         d="m 980.13685,869.50363 c 0,0 -23.8531,16.60204 -44.30118,31.33406 -22.71754,13.69828 -43.29854,22.98291 -43.3322,22.9333 0,0 35.78833,0.23531 53.4034,-7.34704 17.4963,-7.53123 35.23678,-26.79184 34.22998,-46.92032 z"
         inkscape:connector-curvature="0"
         style="fill:#ffffff;stroke-width:1.0391897"
         sodipodi:nodetypes="cccsc" />
      <path
         style="opacity:1;fill:#d40000;stroke-width:1.0391897"
         inkscape:connector-curvature="0"
         d="m 1466.8269,344.96764 c 3.4661,-89.47009 3.103,-87.46793 3.07,-87.00943 0.165,-1.83402 7.1301,-75.97469 -6.1234,-146.7988 C 1450.355,39.433546 1363.1427,19.671874 1363.1427,19.671874 l -4.4893,-0.168119 -91.8667,-3.224836 v 0.42794 l -90.9754,3.194269 -4.4729,0.183402 c 0,0 -87.2287,19.761676 -100.6473,91.48753 -13.2535,70.82412 -6.2884,144.9495 -6.1068,146.78354 -0.033,-0.42798 -0.3961,-2.46067 3.0699,86.99414 3.6641,94.34556 -6.4369,327.00753 -5.0505,355.28216 1.3864,28.24406 -2.2777,88.10988 3.8126,103.91311 6.1069,15.81846 26.8371,92.6338 26.8371,92.6338 0,0 33.5711,59.43777 174.4411,50.57337 v -0.3515 c 140.0777,8.5588 173.5168,-50.61918 173.5168,-50.61918 0,0 20.7467,-76.81534 26.8535,-92.64909 6.0903,-15.78794 2.4262,-75.66903 3.7961,-103.91309 1.3865,-28.24414 -8.6981,-260.9214 -5.034,-355.25168 z"
         id="path10-7" />
      <path
         id="path12-6"
         d="m 1382.305,263.68956 c -32.8449,-15.81851 -115.5348,-16.9495 -115.5348,-16.9495 v -0.12229 c 0,0 -82.6899,1.13099 -115.5348,16.9495 -32.8449,15.80322 -44.9265,23.33803 -42.6654,33.8837 2.2777,10.5304 26.8041,115.58973 26.8041,118.20323 0,2.65934 2.3107,7.168 15.1186,3.79033 12.7913,-3.40824 116.2775,-7.53481 116.2775,-7.53481 v 0.13758 c 0,0 103.4862,4.14185 116.294,7.51952 12.7914,3.40824 15.0856,-1.13099 15.0856,-3.75976 0,-2.62878 24.5429,-107.68812 26.8206,-118.21852 2.2612,-10.56095 -9.8205,-18.09576 -42.6654,-33.89898 z"
         inkscape:connector-curvature="0"
         style="fill:#121215;stroke-width:1.0391897" />
      <path
         id="path14-6"
         d="m 1440.7986,314.90485 c 0,0 -0.3961,120.86257 0,156.62615 0.3961,35.76358 -0.3961,83.95272 -3.2349,116.72071 -2.8719,32.768 -9.3584,179.99477 -9.3584,179.99477 v 2.99561 c 0,0 -20.3176,-51.21532 -24.3943,-90.73867 -8.9457,-38.78972 -4.8855,-134.43439 0,-192.80239 2.0301,-57.97063 32.9274,-162.64789 36.9876,-172.79618 z"
         inkscape:connector-curvature="0"
         style="fill:#101114;stroke-width:1.0391897" />
      <path
         id="path16-0"
         d="m 1389.6827,730.86283 c -2.3437,-13.54125 -4.3738,-9.59809 -4.9515,-10.72907 -0.5942,-1.11571 -15.3496,2.53707 -21.3244,3.95843 -48.1615,7.91691 -96.6201,5.93004 -96.6201,5.93004 v -0.13758 c 0,0 -48.4586,1.98687 -96.6201,-5.93003 -5.9748,-1.40609 -20.7302,-5.10472 -21.3244,-3.97373 -0.5777,1.13098 -2.6078,-2.81218 -4.9515,10.74436 -2.3437,13.55653 -14.6069,95.46125 -13.7156,96.30191 0.8747,0.84058 30.0555,16.9342 81.7326,24.56069 11.3884,0.48946 54.879,2.38423 54.879,2.26194 v 0.12237 c 0,0.15295 43.4906,-1.75764 54.879,-2.26195 51.6771,-7.61126 80.8579,-23.70489 81.7327,-24.56076 0.8747,-0.84058 -11.3885,-82.71476 -13.7157,-96.28658 z"
         inkscape:connector-curvature="0"
         style="fill:#131417;stroke-width:1.0391897" />
      <path
         id="path18-8"
         d="m 1437.2831,345.53314 12.9399,6.92346 v 11.58496 h -12.9399 z"
         inkscape:connector-curvature="0"
         style="fill:#0d0e13;stroke-width:1.0391897" />
      <path
         id="path20-3"
         d="m 1353.7514,27.114976 a 13.104949,12.135165 0 0 0 -3.6641,-1.63534 c -5.7437,-1.55893 -3.334,-1.06985 3.6641,1.63534 z"
         inkscape:connector-curvature="0"
         style="fill:#c2c6c1;stroke-width:1.0391897" />
      <path
         id="path22-1"
         d="m 1444.6113,112.67248 c -246.708,553.10556 -123.354,276.55278 0,0 z"
         inkscape:connector-curvature="0"
         style="fill:#d8684a;stroke-width:1.0391897"
         sodipodi:nodetypes="cc" />
      <path
         id="path24-9"
         d="m 1184.0638,25.892286 a 13.00592,12.043463 0 0 0 -3.6476,1.63535 c 6.9981,-2.7052 9.3913,-3.20955 3.6476,-1.63535 z"
         inkscape:connector-curvature="0"
         style="fill:#c2c6c1;stroke-width:1.0391897" />
      <path
         id="path26-9"
         d="m 1078.3329,358.57004 c -2.5224,389.17385 -1.2612,194.58692 0,0 z"
         inkscape:connector-curvature="0"
         style="fill:#d8684a;stroke-width:1.0391897"
         sodipodi:nodetypes="cc" />
      <path
         id="path28-8"
         d="m 1399.8828,545.6258 39.645,-27.70913 v 32.78329 l -39.645,23.15462 z m -266.7039,259.88201 c -1.7165,12.36443 -2.8223,21.24418 -2.5252,21.51935 0.8748,0.84058 30.0721,16.9342 81.7326,24.56069 11.3884,0.48946 54.8791,2.38423 54.8791,2.26194 v 0.12237 c 0,0.15295 43.4906,-1.75764 54.8955,-2.26195 51.6606,-7.61126 80.8413,-23.70489 81.7326,-24.56076 0.4457,-0.42753 -2.7068,-23.20044 -6.1399,-46.72186 z"
         inkscape:connector-curvature="0"
         style="fill:#202226;stroke-width:1.0391897" />
      <path
         id="path30-2"
         d="m 1128.3595,384.93422 253.2688,-55.52525 38.3741,-11.34042 c 2.3932,-10.3317 4.1262,-18.01935 4.6709,-20.49529 2.2612,-10.54568 -9.8205,-18.09576 -42.6654,-33.89899 -32.8449,-15.8185 -115.5348,-16.94949 -115.5348,-16.94949 v -0.12229 c 0,0 -82.6734,1.13099 -115.5348,16.94949 -32.8449,15.80323 -44.9265,23.33803 -42.6654,33.88371 1.502,6.93874 12.6263,54.83749 20.0866,87.4985 z"
         inkscape:connector-curvature="0"
         style="fill:#212428;stroke-width:1.0391897" />
      <path
         id="path32-9"
         d="m 1093.666,315.31751 c 0,0 0.3797,120.86256 0,156.62614 -0.4126,35.77887 0.3962,83.95272 3.235,116.73601 2.8554,32.75271 9.3583,179.9642 9.3583,179.9642 v 3.01083 c 0,0 20.3177,-51.21526 24.3944,-90.7539 8.9457,-38.78972 4.8855,-134.41909 0,-192.77182 -2.0301,-58.0012 -32.9274,-162.64788 -36.9877,-172.81146 z"
         inkscape:connector-curvature="0"
         style="fill:#101114;stroke-width:1.0391897" />
      <path
         id="path34-7"
         d="m 1466.8269,345.24275 c 3.4661,-89.47009 3.103,-87.46793 3.07,-87.00943 0.165,-1.83402 7.1301,-75.97469 -6.1234,-146.79881 C 1450.355,39.708646 1363.1427,19.946979 1363.1427,19.946979 l -4.4893,-0.16812 -91.8667,-3.209552 v 0.412657 l -90.9754,3.178985 -4.4729,0.183402 c 0,0 -87.2287,19.761675 -100.6473,91.487529 -13.2535,70.82412 -6.2884,144.9495 -6.1068,146.78353 -0.033,-0.42794 -0.3961,-2.44538 3.0699,87.02471 3.6641,94.315 -6.4369,327.00754 -5.0505,355.2516 1.3864,28.24406 -2.2777,88.12515 3.8126,103.91309 6.1069,15.81853 26.8371,92.6338 26.8371,92.6338 0,0 33.5711,59.45307 174.4411,50.57337 v -0.3515 c 140.0777,8.5589 173.5168,-50.61918 173.5168,-50.61918 0,0 20.7467,-76.81527 26.8535,-92.6338 6.0903,-15.81853 2.4262,-75.6843 3.7961,-103.91307 1.3865,-28.24414 -8.6981,-260.93669 -5.034,-355.25168 z m -6.0903,460.64715 c -17.0826,92.98537 -41.8896,108.05494 -69.948,121.99358 -28.042,13.9233 -124.0184,15.788 -124.0184,15.788 v 0.382 c -9.804,-0.2139 -96.6366,-2.6593 -123.1106,-15.7726 -28.0419,-13.93866 -52.8489,-28.99301 -69.9316,-121.9783 -17.0661,-93.01587 6.7176,-130.6899 3.6641,-210.31737 -3.0534,-79.62747 -2.7233,-284.70258 -1.832,-307.84191 0.9078,-23.10879 -6.0738,-183.55583 18.0234,-206.679904 24.0808,-23.16991 58.3616,-54.89863 78.6627,-56.0449 11.603,-0.64191 26.1109,-0.91701 36.443,-1.00871 v -0.55021 h 59.0218 v -0.38209 h 58.0975 v 0.53493 a 795.86981,736.97435 0 0 1 36.443,1.00871 c 20.2846,1.13099 54.5984,32.89027 78.6792,56.0449 24.0972,23.154634 17.0991,183.555834 18.0069,206.695174 0.9077,23.13935 1.2213,228.19917 -1.8321,307.81135 -3.0864,79.65804 20.6972,117.3015 3.6311,210.31735 z"
         inkscape:connector-curvature="0"
         style="fill:#9e4a36;stroke-width:1.0391897" />
      <path
         id="path36-9"
         d="m 1099.0645,869.50045 c 0,0 23.8531,16.6021 44.3012,31.33406 22.7175,13.69835 43.2985,22.98297 43.3322,22.93327 0,0 -35.7883,0.2351 -53.4034,-7.34701 -17.4963,-7.53121 -35.2368,-26.79182 -34.23,-46.92032 z"
         inkscape:connector-curvature="0"
         style="fill:#ffff00;stroke-width:1.0391897"
         sodipodi:nodetypes="cccsc" />
      <path
         id="path38-7"
         d="m 1172.2297,25.433786 c 0,0 -35.1721,15.80322 -45.7353,26.54758 -10.5797,10.71379 -26.2099,29.19164 -26.6225,31.25493 -0.3961,2.06328 -16.7151,23.688564 -16.7151,23.688564 36.713,24.67879 137.0533,-38.077834 89.0729,-81.491074 z"
         inkscape:connector-curvature="0"
         style="fill:#ffff00;stroke-width:1.0391897"
         sodipodi:nodetypes="ccccc" />
      <path
         id="path40-7"
         d="m 1267.0838,16.554023 h 0.1485 v -0.290388 z m 80.8083,11.294563 c -0.3136,-3.24012 -18.1554,-8.054444 -22.5623,-8.910324 -4.3078,-0.81003 -55.0936,-2.292537 -58.114,-2.384239 l -0.016,0.38209 c -3.334,0.106985 -53.8062,1.589493 -58.081,2.414806 -4.4233,0.840597 -22.2652,5.639637 -22.5623,8.895047 -0.2971,3.2554 3.0535,4.79904 7.3117,3.10256 4.2583,-1.69647 10.2166,-6.5108 14.7885,-7.48895 4.5884,-0.96287 58.7247,-2.68991 58.7247,-2.689911 l -0.016,-0.382089 c 4.2252,0.137552 54.0207,1.72704 58.4111,2.68991 4.5718,0.96287 10.5301,5.76191 14.7884,7.47367 4.2913,1.6812 7.6418,0.12227 7.3282,-3.10257 z"
         inkscape:connector-curvature="0"
         style="fill:#1d2021;stroke-width:1.0391897" />
      <path
         id="path42-3"
         d="m 1082.3766,352.85397 c 0,0 -35.3701,13.00634 -37.4993,25.98209 -2.1291,12.97577 -1.8155,14.39715 0,14.39715 1.8156,0 39.3479,-18.35559 39.3479,-18.35559 v -22.02365 z"
         inkscape:connector-curvature="0"
         style="fill:#d14c32;stroke-width:1.0391897" />
      <path
         id="path44-0"
         d="m 1045.1744,396.19822 -0.2971,-2.96501 39.3479,-18.35558 v 2.55235 z"
         inkscape:connector-curvature="0"
         style="fill:#0d0e13;stroke-width:1.0391897" />
      <path
         id="path46-1"
         d="m 1097.1816,345.94579 -12.9564,6.90818 v 11.56969 h 12.9564 z"
         inkscape:connector-curvature="0"
         style="fill:#0d0e13;stroke-width:1.0391897" />
      <path
         id="path48-1"
         d="m 1134.5654,546.02318 -39.645,-27.67857 v 32.768 l 39.645,23.13935 z"
         inkscape:connector-curvature="0"
         style="fill:#202226;stroke-width:1.0391897" />
      <path
         id="path50-7"
         d="m 1143.5606,730.86283 c 2.3437,-13.54125 4.3903,-9.59809 4.968,-10.72907 0.5776,-1.11571 15.3166,2.53707 21.3079,3.95843 48.1615,7.91691 96.6201,5.93004 96.6201,5.93004 v -0.13758 c 0,0 48.4751,1.98687 96.6201,-5.93003 5.9913,-1.40609 20.7303,-5.10472 21.3079,-3.97373 0.5942,1.13098 2.6408,-2.81218 4.968,10.74436 2.3437,13.55653 14.6069,95.46125 13.7157,96.30191 -0.8748,0.84058 -30.0556,16.9342 -81.7327,24.56069 -11.4049,0.48946 -54.879,2.38423 -54.879,2.26194 v 0.12237 c 0,0.15295 -43.4906,-1.75764 -54.879,-2.26195 -51.6771,-7.61126 -80.8579,-23.70489 -81.7492,-24.56076 -0.8582,-0.84058 11.405,-82.71476 13.7322,-96.28658 z m 9.1272,-467.17327 c 32.8449,-15.81851 115.5348,-16.91892 115.5348,-16.91892 v -0.15288 c 0,0 82.6899,1.13098 115.5183,16.9495 32.8449,15.80322 44.9431,23.33803 42.6654,33.8837 -2.2612,10.53039 -26.8041,115.58973 -26.8041,118.20322 0,2.65934 -2.3107,7.168 -15.102,3.79033 -12.7914,-3.40824 -116.2776,-7.53481 -116.2776,-7.53481 v 0.13759 c 0,0 -103.5027,4.14185 -116.294,7.51952 -12.8079,3.40824 -15.1021,-1.131 -15.1021,-3.75976 0,-2.62878 -24.5263,-107.68813 -26.804,-118.21852 -2.2777,-10.56095 9.8204,-18.09576 42.6653,-33.89898 z"
         inkscape:connector-curvature="0"
         style="fill:#343c3e;stroke-width:1.0391897" />
      <path
         id="path52-6"
         d="m 1138.312,270.90341 c -22.3973,11.43211 -30.7323,18.17217 -28.8177,27.06722 2.2612,10.51511 26.8041,115.58974 26.8041,118.2338 0,2.62878 2.3107,7.13743 15.102,3.75976 2.9049,-0.77946 10.4477,-1.58949 20.3837,-2.38424 -15.4487,-35.06054 -28.3556,-112.80812 -33.4721,-146.67654 z m 258.7319,-0.1681 c 22.3973,11.40155 30.7158,18.15689 28.8177,27.06722 -2.2777,10.53039 -26.8205,115.58973 -26.8205,118.21851 0,2.62878 -2.2942,7.168 -15.0856,3.75976 -2.9049,-0.76418 -10.4641,-1.58948 -20.4001,-2.35367 15.4651,-35.13695 28.3555,-112.85397 33.4885,-146.69182 z"
         inkscape:connector-curvature="0"
         style="fill:#2e3436;stroke-width:1.0391897" />
      <path
         id="path54-6"
         d="m 1419.3587,284.21541 c -6.47,-5.6702 -18.3866,-11.95176 -36.8886,-20.86209 -32.8449,-15.81851 -115.5349,-16.9495 -115.5349,-16.9495 v 0.15288 h -0.231 v 0.0612 c -6.635,0.12229 -83.6307,1.81875 -115.0562,16.94951 -18.5186,8.89504 -30.4352,15.19187 -36.9051,20.86209 l 29.2138,21.19833 c 0,0 59.3519,-8.69637 123.4572,-9.67452 v -0.19869 c 63.7257,1.05457 122.5824,6.7859 122.5824,6.7859 z"
         inkscape:connector-curvature="0"
         style="fill:#202226;stroke-width:1.0391897" />
      <path
         id="path56-3"
         d="m 1362.2185,25.021126 c 0,0 35.1886,15.78794 45.7352,26.5323 10.5797,10.74436 26.2429,29.17636 26.6225,31.27021 0.4126,2.07857 17.0785,27.019474 17.0785,27.019474 -36.0683,32.89036 -134.5383,-39.474944 -89.4362,-84.821984 z"
         inkscape:connector-curvature="0"
         style="fill:#ffffff;stroke-width:1.0391897"
         sodipodi:nodetypes="ccccc" />
      <path
         id="path58-5"
         d="m 1207.4018,240.12227 c -88.5683,468.13903 -44.2841,234.06952 0,0 z"
         inkscape:connector-curvature="0"
         style="fill:#d8684a;stroke-width:1.0391897"
         sodipodi:nodetypes="cc" />
      <path
         id="path60-4"
         d="m 1203.1435,232.43464 18.7002,-173.590944 -13.8312,61.378874 z m 128.1942,-0.41267 -18.7002,-173.590934 13.8147,61.394164 z"
         inkscape:connector-curvature="0"
         style="fill:#000000;stroke-width:1.0391897"
         sodipodi:nodetypes="cccccccc" />
      <path
         id="path62-9"
         d="m 1148.5286,720.53113 c -0.5777,1.13098 -2.6243,-2.82747 -4.968,10.72907 -2.3437,13.55654 -14.6069,95.44598 -13.7322,96.30185 0.4292,0.41261 7.4603,4.35579 20.4002,9.23132 l 16.802,-112.96099 c -6.8495,-1.63534 -18.0069,-4.29469 -18.502,-3.30125 z m 240.8405,10.72907 c -2.3272,-13.55653 -4.3738,-9.59809 -4.968,-10.72907 -0.4951,-0.99343 -11.6525,1.65063 -18.502,3.30125 l 16.802,112.96099 c 12.9399,-4.86024 19.9875,-8.80334 20.3837,-9.23132 0.8912,-0.85587 -11.372,-82.74531 -13.7157,-96.30185 z"
         inkscape:connector-curvature="0"
         style="fill:#2e3436;stroke-width:1.0391897" />
      <path
         id="path64-2"
         d="m 1452.0715,352.4566 c 0,0 35.3867,12.99105 37.5158,25.98209 2.1291,12.99106 1.8155,14.39714 0,14.39714 -1.8321,0 -39.3643,-18.35558 -39.3643,-18.35558 V 352.4566 Z"
         inkscape:connector-curvature="0"
         style="fill:#d14c32;stroke-width:1.0391897" />
      <path
         id="path66-1"
         d="m 1489.2737,395.80085 0.3136,-2.94973 -39.3643,-18.35558 v 2.53707 z"
         inkscape:connector-curvature="0"
         style="fill:#0d0e13;stroke-width:1.0391897" />
      <path
         id="path70-1"
         d="m 1270.8799,834.51606 c -53.7237,0 -102.0502,-11.04999 -135.5718,-28.61087 l -2.1457,-0.39768 c -3.433,23.5062 -3.0699,21.61105 -2.5912,22.05424 0.8747,0.84059 30.0555,16.94951 81.7326,24.5607 11.3884,0.50437 54.879,2.39952 54.879,2.26201 v -0.13728 c 0,0.13728 43.4906,-1.77286 54.8791,-2.26195 51.677,-7.62648 80.8743,-23.72011 81.7491,-24.57598 0.2806,-0.24473 -0.6932,-8.02387 -2.2117,-19.07394 -33.2245,16.15473 -79.5044,26.18075 -130.7194,26.18075 z"
         inkscape:connector-curvature="0"
         style="fill:#202226;stroke-width:1.0391897" />
      <path
         id="path36-27-3"
         d="m 1435.2712,869.50365 c 0,0 -23.8531,16.60204 -44.3012,31.33407 -22.7175,13.69827 -43.2985,22.98286 -43.3322,22.93326 0,0 35.7883,0.235 53.4034,-7.347 17.4963,-7.53128 35.2368,-26.7919 34.23,-46.92033 z"
         inkscape:connector-curvature="0"
         style="fill:#ffffff;stroke-width:1.0391897"
         sodipodi:nodetypes="cccsc" />
      <path
         style="opacity:1;fill:#d40000;stroke-width:1.0391897"
         inkscape:connector-curvature="0"
         d="m 1921.9613,344.96767 c 3.4661,-89.47009 3.103,-87.46793 3.07,-87.00943 0.165,-1.83402 7.1301,-75.97469 -6.1234,-146.7988 -13.4185,-71.725867 -100.6308,-91.487538 -100.6308,-91.487538 l -4.4893,-0.168119 -91.8667,-3.224836 v 0.42794 l -90.9754,3.194269 -4.4729,0.183402 c 0,0 -87.2287,19.761673 -100.6473,91.487532 -13.2535,70.82412 -6.2884,144.9495 -6.1068,146.78354 -0.033,-0.42798 -0.3961,-2.46067 3.0699,86.99414 3.6641,94.34556 -6.4369,327.00753 -5.0505,355.28216 1.3864,28.24406 -2.2777,88.10988 3.8126,103.91311 6.1069,15.81846 26.8371,92.6338 26.8371,92.6338 0,0 33.5711,59.43778 174.4411,50.57333 v -0.35142 c 140.0777,8.55877 173.5167,-50.61922 173.5167,-50.61922 0,0 20.7468,-76.81534 26.8536,-92.64909 6.0903,-15.78794 2.4262,-75.66903 3.7961,-103.91309 1.3865,-28.24414 -8.6981,-260.9214 -5.034,-355.25168 z"
         id="path10-3" />
      <path
         id="path12-5"
         d="m 1837.4394,263.68959 c -32.8449,-15.81851 -115.5348,-16.9495 -115.5348,-16.9495 v -0.12229 c 0,0 -82.6899,1.13099 -115.5348,16.9495 -32.8449,15.80322 -44.9265,23.33803 -42.6654,33.8837 2.2777,10.5304 26.8041,115.58973 26.8041,118.20323 0,2.65934 2.3107,7.168 15.1186,3.79033 12.7913,-3.40824 116.2775,-7.53481 116.2775,-7.53481 v 0.13758 c 0,0 103.4862,4.14185 116.294,7.51952 12.7914,3.40824 15.0856,-1.13099 15.0856,-3.75976 0,-2.62878 24.5429,-107.68812 26.8206,-118.21852 2.2611,-10.56095 -9.8205,-18.09576 -42.6654,-33.89898 z"
         inkscape:connector-curvature="0"
         style="fill:#121215;stroke-width:1.0391897" />
      <path
         id="path14-2"
         d="m 1895.933,314.90488 c 0,0 -0.3961,120.86257 0,156.62615 0.3961,35.76358 -0.3961,83.95272 -3.235,116.72071 -2.8718,32.768 -9.3583,179.99477 -9.3583,179.99477 v 2.99561 c 0,0 -20.3176,-51.21532 -24.3943,-90.73867 -8.9457,-38.78972 -4.8855,-134.43439 0,-192.80239 2.0301,-57.97063 32.9274,-162.64789 36.9876,-172.79618 z"
         inkscape:connector-curvature="0"
         style="fill:#101114;stroke-width:1.0391897" />
      <path
         id="path16-6"
         d="m 1844.8171,730.86286 c -2.3437,-13.54125 -4.3738,-9.59809 -4.9515,-10.72907 -0.5942,-1.11571 -15.3496,2.53707 -21.3244,3.95843 -48.1615,7.91691 -96.6201,5.93004 -96.6201,5.93004 v -0.13758 c 0,0 -48.4586,1.98687 -96.6201,-5.93003 -5.9748,-1.40609 -20.7303,-5.10472 -21.3244,-3.97373 -0.5777,1.13098 -2.6078,-2.81218 -4.9515,10.74436 -2.3437,13.55653 -14.6069,95.46125 -13.7157,96.30191 0.8748,0.84058 30.0556,16.9342 81.7327,24.56069 11.3884,0.48946 54.879,2.38423 54.879,2.26194 v 0.12237 c 0,0.15295 43.4906,-1.75764 54.879,-2.26195 51.6771,-7.61126 80.8579,-23.70489 81.7327,-24.56076 0.8747,-0.84058 -11.3885,-82.71476 -13.7157,-96.28658 z"
         inkscape:connector-curvature="0"
         style="fill:#131417;stroke-width:1.0391897" />
      <path
         id="path18-0"
         d="m 1892.4175,345.53317 12.9399,6.92346 v 11.58496 h -12.9399 z"
         inkscape:connector-curvature="0"
         style="fill:#0d0e13;stroke-width:1.0391897" />
      <path
         id="path20-7"
         d="m 1808.8858,27.115007 a 13.104949,12.135165 0 0 0 -3.6641,-1.635344 c -5.7437,-1.558925 -3.334,-1.069851 3.6641,1.635344 z"
         inkscape:connector-curvature="0"
         style="fill:#c2c6c1;stroke-width:1.0391897" />
      <path
         id="path22-8"
         d="m 1899.7457,112.67251 c -246.708,553.10556 -123.354,276.55278 0,0 z"
         inkscape:connector-curvature="0"
         style="fill:#d8684a;stroke-width:1.0391897"
         sodipodi:nodetypes="cc" />
      <path
         id="path24-6"
         d="m 1639.1982,25.892319 a 13.00592,12.043463 0 0 0 -3.6476,1.635344 c 6.9981,-2.705194 9.3913,-3.209553 3.6476,-1.635344 z"
         inkscape:connector-curvature="0"
         style="fill:#c2c6c1;stroke-width:1.0391897" />
      <path
         id="path26-7"
         d="m 1533.4673,358.57007 c -2.5224,389.17385 -1.2612,194.58692 0,0 z"
         inkscape:connector-curvature="0"
         style="fill:#d8684a;stroke-width:1.0391897"
         sodipodi:nodetypes="cc" />
      <path
         id="path28-6"
         d="m 1855.0172,545.62583 39.6449,-27.70913 v 32.78329 l -39.6449,23.15462 z m -266.7039,259.88201 c -1.7165,12.36443 -2.8223,21.24418 -2.5252,21.51935 0.8747,0.84058 30.072,16.9342 81.7326,24.56069 11.3884,0.48946 54.879,2.38423 54.879,2.26194 v 0.12237 c 0,0.15295 43.4907,-1.75764 54.8956,-2.26195 51.6605,-7.61126 80.8413,-23.70489 81.7326,-24.56076 0.4457,-0.42753 -2.7068,-23.20044 -6.1399,-46.72186 z"
         inkscape:connector-curvature="0"
         style="fill:#202226;stroke-width:1.0391897" />
      <path
         id="path30-8"
         d="m 1583.4939,384.93425 253.2688,-55.52525 38.3741,-11.34042 c 2.3932,-10.3317 4.1262,-18.01935 4.6709,-20.49529 2.2611,-10.54568 -9.8205,-18.09576 -42.6654,-33.89899 -32.8449,-15.8185 -115.5348,-16.94949 -115.5348,-16.94949 v -0.12229 c 0,0 -82.6734,1.13099 -115.5348,16.94949 -32.8449,15.80323 -44.9265,23.33803 -42.6654,33.88371 1.502,6.93874 12.6263,54.83749 20.0866,87.4985 z"
         inkscape:connector-curvature="0"
         style="fill:#212428;stroke-width:1.0391897" />
      <path
         id="path32-1"
         d="m 1548.8004,315.31754 c 0,0 0.3797,120.86256 0,156.62614 -0.4126,35.77887 0.3962,83.95272 3.235,116.73601 2.8554,32.75271 9.3583,179.9642 9.3583,179.9642 v 3.01083 c 0,0 20.3177,-51.21526 24.3944,-90.7539 8.9457,-38.78972 4.8855,-134.41909 0,-192.77182 -2.0301,-58.0012 -32.9274,-162.64788 -36.9877,-172.81146 z"
         inkscape:connector-curvature="0"
         style="fill:#101114;stroke-width:1.0391897" />
      <path
         id="path34-78"
         d="m 1921.9613,345.24278 c 3.4661,-89.47009 3.103,-87.46793 3.07,-87.00943 0.165,-1.83402 7.1301,-75.97469 -6.1234,-146.79881 -13.4185,-71.725862 -100.6308,-91.487533 -100.6308,-91.487533 l -4.4893,-0.16812 -91.8667,-3.209552 v 0.412657 l -90.9754,3.178985 -4.4729,0.183402 c 0,0 -87.2287,19.761673 -100.6473,91.487531 -13.2535,70.82412 -6.2884,144.9495 -6.1068,146.78353 -0.033,-0.42794 -0.3961,-2.44538 3.0699,87.02471 3.6641,94.315 -6.4369,327.00754 -5.0505,355.2516 1.3864,28.24406 -2.2777,88.12515 3.8126,103.91309 6.1069,15.81853 26.8371,92.6338 26.8371,92.6338 0,0 33.5711,59.45308 174.4411,50.57333 v -0.35142 c 140.0777,8.55884 173.5167,-50.61922 173.5167,-50.61922 0,0 20.7468,-76.81527 26.8536,-92.6338 6.0903,-15.81853 2.4262,-75.6843 3.7961,-103.91307 1.3865,-28.24414 -8.6981,-260.93669 -5.034,-355.25168 z m -6.0903,460.64715 c -17.0826,92.98537 -41.8896,108.05494 -69.948,121.99361 -28.042,13.92331 -124.0184,15.78794 -124.0184,15.78794 v 0.38202 c -9.804,-0.21391 -96.6366,-2.65933 -123.1106,-15.77257 -28.0419,-13.93868 -52.8489,-28.99303 -69.9316,-121.97832 -17.0661,-93.01587 6.7175,-130.6899 3.6641,-210.31737 -3.0534,-79.62747 -2.7233,-284.70258 -1.832,-307.84191 0.9078,-23.10879 -6.0738,-183.55583 18.0234,-206.679905 24.0808,-23.16991 58.3616,-54.898628 78.6627,-56.044896 11.603,-0.64191 26.1109,-0.917015 36.443,-1.008717 v -0.550205 h 59.0218 v -0.38209 h 58.0975 v 0.534924 a 795.86981,736.97435 0 0 1 36.443,1.008718 c 20.2846,1.130985 54.5984,32.890269 78.6792,56.044897 24.0972,23.154634 17.0991,183.555834 18.0069,206.695174 0.9077,23.13935 1.2213,228.19917 -1.8321,307.81135 -3.0864,79.65804 20.6972,117.3015 3.6311,210.31735 z"
         inkscape:connector-curvature="0"
         style="fill:#9e4a36;stroke-width:1.0391897" />
      <path
         id="path36-6"
         d="m 1554.1989,869.50048 c 0,0 23.8531,16.6021 44.3012,31.33406 22.7175,13.69835 43.2985,22.98294 43.3322,22.93332 0,0 -35.7884,0.23503 -53.4034,-7.34706 -17.4963,-7.53121 -35.2368,-26.79182 -34.23,-46.92032 z"
         inkscape:connector-curvature="0"
         style="fill:#ffffff;stroke-width:1.0391897"
         sodipodi:nodetypes="cccsc" />
      <path
         id="path38-78"
         d="m 1627.3641,25.433812 c 0,0 -35.1721,15.803224 -45.7353,26.547584 -10.5797,10.713791 -26.2099,29.191642 -26.6225,31.254925 -0.3961,2.063285 -16.7151,23.688569 -16.7151,23.688569 36.7129,24.67879 137.0533,-38.077831 89.0729,-81.491078 z"
         inkscape:connector-curvature="0"
         style="fill:#ffffff;stroke-width:1.0391897"
         sodipodi:nodetypes="ccccc" />
      <path
         id="path40-2"
         d="m 1722.2182,16.554051 h 0.1485 v -0.290388 z m 80.8083,11.294567 c -0.3136,-3.240119 -18.1554,-8.054448 -22.5623,-8.910328 -4.3078,-0.81003 -55.0936,-2.292537 -58.114,-2.384239 l -0.016,0.38209 c -3.334,0.106985 -53.8062,1.589493 -58.081,2.414806 -4.4233,0.840597 -22.2652,5.639642 -22.5623,8.895045 -0.2971,3.255403 3.0534,4.799045 7.3117,3.102567 4.2583,-1.696478 10.2166,-6.510806 14.7885,-7.488955 4.5884,-0.962866 58.7247,-2.68991 58.7247,-2.689911 l -0.016,-0.382089 c 4.2252,0.137552 54.0207,1.727045 58.4111,2.68991 4.5718,0.962866 10.5301,5.76191 14.7884,7.473672 4.2913,1.681194 7.6418,0.122267 7.3282,-3.102568 z"
         inkscape:connector-curvature="0"
         style="fill:#1d2021;stroke-width:1.0391897" />
      <path
         id="path42-0"
         d="m 1537.511,352.854 c 0,0 -35.3701,13.00634 -37.4993,25.98209 -2.1291,12.97577 -1.8155,14.39715 0,14.39715 1.8156,0 39.3479,-18.35559 39.3479,-18.35559 V 352.854 Z"
         inkscape:connector-curvature="0"
         style="fill:#d14c32;stroke-width:1.0391897" />
      <path
         id="path44-4"
         d="m 1500.3088,396.19825 -0.2971,-2.96501 39.3479,-18.35558 v 2.55235 z"
         inkscape:connector-curvature="0"
         style="fill:#0d0e13;stroke-width:1.0391897" />
      <path
         id="path46-8"
         d="m 1552.316,345.94582 -12.9564,6.90818 v 11.56969 h 12.9564 z"
         inkscape:connector-curvature="0"
         style="fill:#0d0e13;stroke-width:1.0391897" />
      <path
         id="path48-13"
         d="m 1589.6998,546.02321 -39.645,-27.67857 v 32.768 l 39.645,23.13935 z"
         inkscape:connector-curvature="0"
         style="fill:#202226;stroke-width:1.0391897" />
      <path
         id="path50-3"
         d="m 1598.695,730.86286 c 2.3437,-13.54125 4.3903,-9.59809 4.968,-10.72907 0.5776,-1.11571 15.3166,2.53707 21.3079,3.95843 48.1615,7.91691 96.6201,5.93004 96.6201,5.93004 v -0.13758 c 0,0 48.4751,1.98687 96.6201,-5.93003 5.9913,-1.40609 20.7302,-5.10472 21.3079,-3.97373 0.5942,1.13098 2.6408,-2.81218 4.968,10.74436 2.3437,13.55653 14.6069,95.46125 13.7157,96.30191 -0.8748,0.84058 -30.0556,16.9342 -81.7327,24.56069 -11.4049,0.48946 -54.879,2.38423 -54.879,2.26194 v 0.12237 c 0,0.15295 -43.4906,-1.75764 -54.879,-2.26195 -51.6771,-7.61126 -80.8579,-23.70489 -81.7492,-24.56076 -0.8582,-0.84058 11.405,-82.71476 13.7322,-96.28658 z m 9.1272,-467.17327 c 32.8449,-15.81851 115.5348,-16.91892 115.5348,-16.91892 v -0.15288 c 0,0 82.6899,1.13098 115.5183,16.9495 32.8449,15.80322 44.9431,23.33803 42.6654,33.8837 -2.2612,10.53039 -26.8041,115.58973 -26.8041,118.20322 0,2.65934 -2.3107,7.168 -15.1021,3.79033 -12.7913,-3.40824 -116.2775,-7.53481 -116.2775,-7.53481 v 0.13759 c 0,0 -103.5027,4.14185 -116.294,7.51952 -12.8079,3.40824 -15.1021,-1.131 -15.1021,-3.75976 0,-2.62878 -24.5264,-107.68813 -26.804,-118.21852 -2.2777,-10.56095 9.8204,-18.09576 42.6653,-33.89898 z"
         inkscape:connector-curvature="0"
         style="fill:#343c3e;stroke-width:1.0391897" />
      <path
         id="path52-3"
         d="m 1593.4464,270.90344 c -22.3973,11.43211 -30.7323,18.17217 -28.8177,27.06722 2.2612,10.51511 26.8041,115.58974 26.8041,118.2338 0,2.62878 2.3107,7.13743 15.102,3.75976 2.9049,-0.77946 10.4477,-1.58949 20.3837,-2.38424 -15.4487,-35.06054 -28.3556,-112.80812 -33.4721,-146.67654 z m 258.7319,-0.1681 c 22.3973,11.40155 30.7158,18.15689 28.8177,27.06722 -2.2777,10.53039 -26.8206,115.58973 -26.8206,118.21851 0,2.62878 -2.2942,7.168 -15.0855,3.75976 -2.9049,-0.76418 -10.4642,-1.58948 -20.4001,-2.35367 15.4651,-35.13695 28.3555,-112.85397 33.4885,-146.69182 z"
         inkscape:connector-curvature="0"
         style="fill:#2e3436;stroke-width:1.0391897" />
      <path
         id="path54-2"
         d="m 1874.4931,284.21544 c -6.47,-5.6702 -18.3866,-11.95176 -36.8887,-20.86209 -32.8448,-15.81851 -115.5348,-16.9495 -115.5348,-16.9495 v 0.15288 h -0.231 v 0.0612 c -6.635,0.12229 -83.6307,1.81875 -115.0562,16.94951 -18.5186,8.89504 -30.4352,15.19187 -36.9051,20.86209 l 29.2138,21.19833 c 0,0 59.3519,-8.69637 123.4572,-9.67452 v -0.19869 c 63.7257,1.05457 122.5824,6.7859 122.5824,6.7859 z"
         inkscape:connector-curvature="0"
         style="fill:#202226;stroke-width:1.0391897" />
      <path
         id="path56-7"
         d="m 1817.3528,25.021156 c 0,0 35.1886,15.78794 45.7353,26.532298 10.5797,10.744359 26.2429,29.17636 26.6225,31.27021 0.4126,2.078568 17.0785,27.019476 17.0785,27.019476 -36.0683,32.89036 -134.5383,-39.474948 -89.4363,-84.821984 z"
         inkscape:connector-curvature="0"
         style="fill:#ffff00;stroke-width:1.0391897"
         sodipodi:nodetypes="ccccc" />
      <path
         id="path58-4"
         d="m 1662.5362,240.1223 c -88.5683,468.13903 -44.2841,234.06952 0,0 z"
         inkscape:connector-curvature="0"
         style="fill:#d8684a;stroke-width:1.0391897"
         sodipodi:nodetypes="cc" />
      <path
         id="path60-9"
         d="M 1658.2779,232.43467 1676.978,58.843724 1663.1469,120.2226 Z m 128.1942,-0.41267 -18.7002,-173.590933 13.8147,61.394163 z"
         inkscape:connector-curvature="0"
         style="fill:#000000;stroke-width:1.0391897"
         sodipodi:nodetypes="cccccccc" />
      <path
         id="path62-3"
         d="m 1603.663,720.53116 c -0.5777,1.13098 -2.6243,-2.82747 -4.968,10.72907 -2.3437,13.55654 -14.6069,95.44598 -13.7322,96.30185 0.4292,0.41261 7.4603,4.35579 20.4002,9.23132 l 16.802,-112.96099 c -6.8495,-1.63534 -18.0069,-4.29469 -18.502,-3.30125 z m 240.8405,10.72907 c -2.3272,-13.55653 -4.3738,-9.59809 -4.968,-10.72907 -0.4951,-0.99343 -11.6525,1.65063 -18.502,3.30125 l 16.802,112.96099 c 12.9399,-4.86024 19.9875,-8.80334 20.3837,-9.23132 0.8912,-0.85587 -11.372,-82.74531 -13.7157,-96.30185 z"
         inkscape:connector-curvature="0"
         style="fill:#2e3436;stroke-width:1.0391897" />
      <path
         id="path64-29"
         d="m 1907.2059,352.45663 c 0,0 35.3867,12.99105 37.5158,25.98209 2.1291,12.99106 1.8155,14.39714 0,14.39714 -1.8321,0 -39.3643,-18.35558 -39.3643,-18.35558 v -22.02365 z"
         inkscape:connector-curvature="0"
         style="fill:#d14c32;stroke-width:1.0391897" />
      <path
         id="path66-5"
         d="m 1944.4081,395.80088 0.3136,-2.94973 -39.3643,-18.35558 v 2.53707 z"
         inkscape:connector-curvature="0"
         style="fill:#0d0e13;stroke-width:1.0391897" />
      <path
         id="path70-2"
         d="m 1726.0143,834.51609 c -53.7237,0 -102.0502,-11.04999 -135.5718,-28.61087 l -2.1457,-0.39768 c -3.433,23.5062 -3.0699,21.61105 -2.5912,22.05424 0.8747,0.84059 30.0555,16.94951 81.7326,24.5607 11.3884,0.50437 54.879,2.39952 54.879,2.26201 v -0.13728 c 0,0.13728 43.4906,-1.77286 54.879,-2.26195 51.6771,-7.62648 80.8744,-23.72011 81.7492,-24.57598 0.2806,-0.24473 -0.6933,-8.02387 -2.2117,-19.07394 -33.2245,16.15473 -79.5044,26.18075 -130.7194,26.18075 z"
         inkscape:connector-curvature="0"
         style="fill:#202226;stroke-width:1.0391897" />
      <path
         id="path36-27-4"
         d="m 1890.4056,869.50368 c 0,0 -23.8531,16.60204 -44.3012,31.33407 -22.7176,13.69827 -43.2985,22.98286 -43.3322,22.93325 0,0 35.7883,0.23502 53.4034,-7.34699 17.4963,-7.53128 35.2368,-26.7919 34.23,-46.92033 z"
         inkscape:connector-curvature="0"
         style="fill:#ffff00;stroke-width:1.0391897"
         sodipodi:nodetypes="cccsc" />
    </g>
  </g>
</svg>
